<?xml version='1.0' encoding='utf-8'?>
<svg xmlns="http://www.w3.org/2000/svg" width="187.40082mm" height="211.66086mm" viewBox="0 0 187.40082 211.66086" version="1.1" id="svg5" xml:space="preserve"><defs id="defs2" /><g id="layer1"><path style="fill:#000000" d="m 6.617999999998574 211.54180000000088 c -2.11,-0.1122 -4.402,-0.219 -5.093,-0.2373 l -1.257,-0.033 v -3.9828 c 0,-3.8124 0.03,-4.0245 0.661,-4.9562 0.576,-0.8479 0.662,-1.2608 0.662,-3.2022 0,-1.9492 0.08,-2.3338 0.639,-3.0671 0.616,-0.8076 0.65,-1.0812 0.921,-7.4333 0.155,-3.6272 0.405,-10.1668 0.555,-14.5324 0.474,-13.7739 0.788,-22.6177 0.956,-26.9053 0.151,-3.8605 0.126,-4.2033 -0.362,-4.8948 -0.703,-0.996 -1.979,-3.5469 -1.842,-3.6832 0.06,-0.06 5.25,-0.078 11.534,-0.04 l 11.425,0.069 -1.372,2.2294 -1.372,2.2294 0.168,10.8675 c 0.09,5.9771 0.305,17.6541 0.473,25.9487 l 0.305,15.0813 0.627,1.1054 c 0.508,0.8941 0.628,1.4881 0.628,3.1061 v 2.0006 l -11.421,0.069 c -8.852,0.053 -11.446,0.1434 -11.532,0.3997 -0.09,0.2612 2.321,0.3307 11.459,0.3307 10.707,0 11.594,0.034 11.919,0.4631 0.257,0.3379 0.354,1.5783 0.36,4.5911 v 4.1282 l -2.448,0.1652 c -4.439,0.2996 -12.702,0.3909 -16.602,0.1834 z m 16.885,-15.4179 -0.08,-0.5953 -9.922,-0.07 c -9.093,-0.064 -9.95,-0.032 -10.253,0.3813 -0.182,0.2481 -0.33,0.5475 -0.33,0.6652 0,0.1177 4.651,0.214 10.337,0.214 h 10.337 z m -8.485,-34.3261 h 1.125 v -5.1116 -5.1116 l -1.07,-1.4368 c -0.589,-0.7903 -1.17,-1.4718 -1.292,-1.5145 -0.121,-0.043 -0.711,0.5384 -1.311,1.2913 -1.086,1.3645 -1.09,1.3765 -1.091,3.6495 0,1.2543 -0.08,3.6112 -0.172,5.2374 l -0.17,2.9569 0.899,0.1148 c 0.495,0.063 1.138,0.074 1.429,0.023 0.291,-0.05 1.035,-0.093 1.653,-0.095 z m 36.05,49.7426 c -2.256,-0.1095 -4.369,-0.2149 -4.697,-0.2341 -0.59,-0.035 -0.595,-0.067 -0.595,-4.2274 0,-3.7254 0.05,-4.2411 0.484,-4.6302 0.434,-0.393 1.636,-0.4379 11.721,-0.4379 8.387,0 11.318,0.081 11.555,0.3175 0.22,0.2208 0.317,1.6211 0.317,4.5962 v 4.2787 l -2.844,0.1632 c -5.278,0.3029 -11.816,0.3743 -15.941,0.174 z m 68.395,0 c -2.038,-0.1132 -4.032,-0.2203 -4.432,-0.2381 l -0.728,-0.032 v -4.1672 c 0,-3.0453 0.103,-4.2919 0.359,-4.6302 0.326,-0.4284 1.205,-0.4631 11.757,-0.4631 11.004,0 11.414,0.018 11.678,0.5118 0.155,0.2893 0.274,2.2854 0.274,4.5922 v 4.0804 l -2.05,0.1646 c -3.637,0.2919 -13.058,0.3935 -16.867,0.1818 z m 44.185,6e-4 c -2.037,-0.1135 -4.032,-0.2209 -4.432,-0.2387 l -0.727,-0.032 v -4.1924 c 0,-3.7254 0.05,-4.2411 0.483,-4.6302 0.435,-0.3932 1.651,-0.4379 11.929,-0.4379 9.038,0 11.421,-0.069 11.334,-0.3307 -0.09,-0.2562 -2.653,-0.3462 -11.399,-0.3997 l -11.289,-0.069 v -2.1487 c 0,-1.6592 0.116,-2.3367 0.509,-2.9737 0.541,-0.8761 0.61,-3.2136 1.238,-42.2323 l 0.169,-10.4511 -1.218,-2.2489 c -0.67,-1.2369 -1.22,-2.3383 -1.223,-2.4474 0,-0.1092 5.115,-0.1984 11.373,-0.1984 6.257,0 11.377,0.092 11.377,0.2048 0,0.1127 -0.526,1.1275 -1.169,2.2552 l -1.168,2.0503 0.229,6.6745 c 0.127,3.671 0.355,10.0083 0.508,14.0829 0.152,4.0745 0.457,12.8153 0.676,19.4238 l 0.398,12.0155 0.66,0.8653 c 0.587,0.7694 0.66,1.1238 0.666,3.198 0,1.9073 0.1,2.4534 0.523,2.9942 0.462,0.5912 0.518,1.1 0.523,4.7885 v 4.1269 l -2.844,0.1771 c -4.887,0.3043 -13.269,0.3895 -17.132,0.1743 z m 17.586,-15.0215 c 0,-0.1091 -0.166,-0.4068 -0.36,-0.6614 -0.323,-0.4263 -1.127,-0.463 -10.135,-0.463 h -9.784 l -0.302,0.6614 -0.301,0.6615 h 10.445 c 5.745,0 10.442,-0.089 10.437,-0.1985 z m -8.193,-39.6387 c 0,-3.1405 -0.108,-5.1206 -0.3,-5.4901 -0.419,-0.8088 -2.075,-2.8269 -2.319,-2.8269 -0.112,0 -0.699,0.6698 -1.306,1.4885 l -1.102,1.4885 v 5.1261 5.1261 h 2.513 2.514 z m -146.05,49.9419 c 0,-3.2681 -0.08,-4.295 -0.389,-4.6963 -0.268,-0.3546 -0.391,-1.2029 -0.397,-2.7393 0,-1.8473 -0.114,-2.4096 -0.633,-3.3073 -0.616,-1.0686 -0.626,-1.2022 -0.794,-11.1358 -0.09,-5.5298 -0.249,-13.4177 -0.344,-17.5286 l -0.174,-7.4745 h 11.783 11.783 l -0.108,3.5057 c -0.06,1.9282 -0.282,8.6523 -0.495,14.9424 -0.214,6.2902 -0.389,12.6027 -0.389,14.0277 0,2.3277 -0.07,2.6898 -0.661,3.5644 -0.573,0.8426 -0.662,1.2685 -0.667,3.1702 0,1.7724 -0.106,2.3247 -0.524,2.8583 -0.463,0.5919 -0.518,1.1003 -0.523,4.8287 v 4.1672 h -8.731 -8.731 z m 44.185,0.072 c 0,-3.0378 -0.1,-4.2632 -0.365,-4.6963 -0.201,-0.3223 -0.438,-1.6898 -0.527,-3.0389 -0.09,-1.4072 -0.322,-2.7044 -0.539,-3.0427 -0.481,-0.7504 -0.597,-3.2538 -1.084,-23.344 -0.211,-8.7313 -0.455,-16.9168 -0.542,-18.1901 l -0.158,-2.3151 h 24.092 24.092 l -0.134,3.638 c -0.121,3.2606 -0.302,10.4378 -0.819,32.4541 -0.144,6.0968 -0.22,6.999 -0.658,7.7277 -0.377,0.6285 -0.497,1.353 -0.501,3.0427 0,1.793 -0.105,2.3443 -0.524,2.8791 -0.463,0.5919 -0.518,1.1003 -0.523,4.8287 v 4.1672 h -1.838 -1.838 l -0.08,-15.412 -0.08,-15.412 -0.953,-2.7 c -0.524,-1.485 -1.357,-3.3734 -1.852,-4.1964 -1.417,-2.3569 -3.986,-5.2061 -6.376,-7.0697 -1.959,-1.5274 -7.329,-4.9516 -7.765,-4.9516 -0.32,0 -6.338,3.7577 -7.746,4.8365 -3.901,2.9877 -6.999,7.212 -8.717,11.8841 l -0.71,1.9325 -0.08,15.5443 -0.08,15.5443 h -1.841 -1.84 z m 5.031,-10.9047 c 0,-16.1516 0.04,-16.6045 1.418,-19.7271 2.023,-4.5751 5.641,-8.2292 12.109,-12.2302 l 2.403,-1.4864 2.78,1.6737 c 3.564,2.1457 7.292,5.233 8.895,7.3654 0.693,0.9213 1.724,2.6369 2.293,3.8125 1.841,3.8098 1.84,3.8008 1.844,20.5921 v 15.0151 h -1.282 -1.282 l -0.173,-3.6137 c -0.1,-1.9876 -0.175,-8.6253 -0.176,-14.7505 0,-11.9212 -0.05,-12.3694 -1.398,-15.3251 -1.644,-3.5917 -4.299,-6.4725 -8.789,-9.5386 -1.411,-0.9632 -2.609,-1.7513 -2.663,-1.7513 -0.06,0 -1.322,0.7888 -2.817,1.7529 -4.733,3.0514 -8.109,7.0204 -9.536,11.2117 -0.574,1.6845 -0.588,2.0305 -0.665,16.8672 l -0.08,15.1474 h -1.445 -1.445 z m 63.494,10.8479 c 0,-3.7135 -0.06,-4.2536 -0.527,-4.9609 -0.412,-0.6228 -0.526,-1.2432 -0.527,-2.8792 0,-1.5588 -0.126,-2.2938 -0.494,-2.9104 -0.447,-0.7488 -0.534,-2.1331 -0.941,-14.9802 -0.247,-7.7854 -0.52,-15.7328 -0.607,-17.661 l -0.158,-3.5057 h 11.722 11.722 l -0.171,7.8714 c -0.09,4.3292 -0.248,12.2766 -0.341,17.6609 -0.156,8.9565 -0.212,9.8493 -0.662,10.4919 -0.389,0.5544 -0.494,1.1949 -0.499,3.0427 0,1.9149 -0.1,2.4607 -0.523,3.0018 -0.463,0.5919 -0.518,1.1003 -0.523,4.8287 v 4.1672 h -8.732 -8.731 z m -92.867,-7.7498 c 0,-1.7729 0.1,-2.2577 0.579,-2.9098 0.552,-0.7467 0.593,-1.2033 0.905,-9.9773 0.366,-10.3008 0.815,-25.4338 1.072,-36.1876 l 0.171,-7.1489 -1.099,-2.0018 c -0.604,-1.1009 -1.098,-2.0809 -1.098,-2.1776 0,-0.097 4.822,-0.1758 10.715,-0.1758 5.894,0 10.716,0.071 10.716,0.158 0,0.087 -0.494,1.1067 -1.097,2.2662 l -1.097,2.1082 0.16,8.1187 c 0.09,4.4652 0.29,12.4644 0.45,17.7759 0.159,5.3115 0.372,13.4078 0.474,17.9917 0.179,8.0115 0.209,8.3715 0.78,9.2916 0.481,0.7739 0.594,1.3442 0.594,2.9766 v 2.0193 h -11.112 -11.113 z m 20.93,-2.9658 -0.22,-0.5953 -9.463,-0.07 c -8.776,-0.064 -9.489,-0.036 -9.817,0.3969 -0.195,0.2565 -0.358,0.5557 -0.363,0.6648 0,0.1092 4.512,0.1985 10.037,0.1985 h 10.046 z m -7.436,-39.3989 v -5.3338 l -1.078,-1.4284 c -0.593,-0.7857 -1.183,-1.3918 -1.311,-1.347 -0.128,0.045 -0.715,0.7281 -1.303,1.5184 l -1.07,1.4368 v 5.0964 5.0964 l 1.124,0.1012 c 0.619,0.056 1.69,0.1221 2.381,0.1475 l 1.257,0.046 z m 55.033,42.3501 c 0,-1.6488 0.113,-2.3036 0.487,-2.8442 0.45,-0.6496 0.521,-2.1041 0.937,-19.3555 0.248,-10.2592 0.523,-22.0464 0.611,-26.1937 l 0.16,-7.5406 -1.097,-2.177 c -0.604,-1.1973 -1.098,-2.2391 -1.098,-2.3151 0,-0.076 4.823,-0.1381 10.716,-0.1381 5.894,0 10.714,0.089 10.712,0.1984 0,0.1091 -0.478,1.069 -1.058,2.1331 -1.034,1.8955 -1.055,1.9891 -1.055,4.618 0,1.4757 0.115,5.189 0.256,8.2517 0.246,5.3386 0.427,10.6175 1.091,31.8946 0.27,8.6348 0.355,9.7499 0.8,10.5323 0.373,0.6548 0.499,1.4039 0.499,2.9766 v 2.1015 h -10.98 -10.981 z m 20.903,-2.5056 c 0,-0.082 -0.124,-0.38 -0.274,-0.6615 -0.263,-0.4913 -0.652,-0.5117 -9.762,-0.5117 -9.948,0 -9.808,-0.015 -9.808,1.0799 0,0.1433 4.073,0.243 9.922,0.243 5.457,0 9.922,-0.067 9.922,-0.1497 z m -7.673,-39.946 v -5.1708 l -1.09,-1.4438 c -0.6,-0.7941 -1.191,-1.4439 -1.315,-1.4439 -0.123,0 -0.704,0.6359 -1.291,1.4131 l -1.067,1.4131 v 5.2015 5.2015 h 2.381 2.382 z m -104.511,-2.5022 v -4.2334 h 2.514 2.513 v 2.249 2.249 h 1.852 1.852 l 0.04,-1.3891 c 0.02,-0.764 0.01,-1.776 -0.02,-2.249 l -0.06,-0.8599 h 2.534 2.535 v 2.249 2.249 h 2.249 2.248 v -2.249 -2.249 h 2.948 2.947 l -0.167,1.3891 c -0.09,0.764 -0.168,2.669 -0.169,4.2333 v 2.8443 h -11.907 -11.906 z m 112.349,3.4065 c -0.09,-0.4548 -0.165,-2.3598 -0.165,-4.2334 v -3.4065 h 2.778 2.778 v 2.249 2.249 h 2.249 2.249 v -2.249 -2.249 h 2.381 2.381 v 0.8599 c 0,0.473 0.08,1.485 0.169,2.249 l 0.167,1.3891 h 1.815 1.815 v -2.249 -2.249 h 2.514 2.513 v 3.8149 c 0,2.0981 -0.07,4.0031 -0.161,4.2333 -0.143,0.3728 -1.425,0.4185 -11.74,0.4185 h -11.581 z m -97.079,-4.3641 c -0.103,-0.1039 -0.189,-0.7495 -0.189,-1.4347 0,-1.9868 -0.26,-2.8994 -0.826,-2.8994 -0.479,0 -0.496,-0.4591 -0.496,-12.7239 v -12.724 l -1.191,-1.3936 -1.191,-1.3937 v -4.2709 -4.271 h -0.689 c -0.549,0 -0.654,-0.095 -0.512,-0.463 0.411,-1.0634 1.242,-4.4536 2.157,-8.7974 0.962,-4.5694 0.976,-4.7144 1.002,-11.0458 0.02,-4.9415 0.103,-6.4158 0.357,-6.4162 0.182,-3e-4 0.331,0.2376 0.331,0.5287 0,0.466 0.177,0.5291 1.478,0.5291 1.356,0 1.545,0.076 2.298,0.9261 0.664,0.7505 1.009,0.926 1.82,0.926 0.729,0 1.077,-0.1432 1.283,-0.5291 0.225,-0.4201 0.554,-0.5292 1.597,-0.5292 h 1.314 v 1.8666 1.8665 l 1.257,-0.081 1.256,-0.081 0.08,-1.786 0.08,-1.7859 h 1.443 1.443 v 1.8521 1.8521 h 0.926 0.926 v -1.4553 c 0,-1.023 -0.1,-1.4355 -0.331,-1.389 -0.198,0.04 -0.364,-0.279 -0.413,-0.7938 l -0.08,-0.8599 h -2.497 -2.497 v 1.175 c 0,1.5918 -0.426,1.7535 -0.652,0.2474 -0.135,-0.9013 -0.319,-1.2538 -0.706,-1.355 -0.288,-0.075 -0.475,-0.2701 -0.415,-0.4329 0.332,-0.9002 6.217,-19.0657 7.595,-23.4416 1.187,-3.7703 1.58,-5.3808 1.464,-5.9987 -0.09,-0.4726 -0.04,-0.9188 0.114,-1.0131 0.357,-0.2201 0.369,-10.8405 0.01,-11.504 -0.366,-0.684 0.34,-1.2856 0.933,-0.7941 0.225,0.1866 0.349,0.4949 0.276,0.685 -0.102,0.2668 0.302,0.3371 1.774,0.3081 2.228,-0.044 3.055,0.3073 3.271,1.389 0.194,0.9673 1.342,1.3564 3.036,1.0291 0.636,-0.1228 1.691,-0.2273 2.346,-0.2323 l 1.191,-0.01 -1.778,0.8291 c -0.978,0.4561 -1.724,0.9175 -1.657,1.0254 0.07,0.108 0.629,0.273 1.249,0.3668 2.029,0.3069 1.888,0.5616 -0.657,1.1828 -2.697,0.6583 -3.904,0.5149 -3.904,-0.4637 0,-0.896 -1.499,-1.0816 -3.836,-0.4749 l -1.323,0.3434 0.05,3.1572 c 0.03,1.7364 0.06,3.6283 0.07,4.2041 0.02,1.1461 1.59,6.2063 6.361,20.4505 2.756,8.2267 3.065,9.3265 2.624,9.3265 -0.38,0 -0.542,0.256 -0.67,1.0584 -0.09,0.5821 -0.272,1.0583 -0.397,1.0583 -0.125,0 -0.304,-0.4762 -0.397,-1.0583 l -0.169,-1.0584 h -2.182 -2.183 l -0.165,0.8269 c -0.09,0.4547 -0.165,1.4667 -0.165,2.2489 0,1.2458 0.06,1.4222 0.529,1.4222 0.479,0 0.529,-0.1764 0.529,-1.8521 v -1.8521 h 1.455 1.455 v 1.8521 1.8521 h 1.191 c 1.313,0 1.267,0.079 1.303,-2.249 l 0.02,-1.3229 1.389,-0.08 1.389,-0.08 v 4.0866 c 0,3.4823 -0.06,4.1103 -0.418,4.2472 -0.231,0.088 -2.179,0.1606 -4.331,0.1606 h -3.912 l -0.471,-1.6537 c -0.259,-0.9095 -0.561,-3.1419 -0.672,-4.9609 -0.233,-3.8259 -1.282,-14.0313 -1.474,-14.3418 -0.169,-0.2733 -0.824,-0.2713 -0.993,0 -0.07,0.1173 -0.388,2.9451 -0.7,6.2839 -0.432,4.6261 -0.66,6.1228 -0.957,6.2903 -0.307,0.1738 -0.322,0.3 -0.07,0.6031 0.498,0.5998 0.308,3.462 -0.375,5.6594 l -0.617,1.9844 h -4.874 -4.873 l -0.07,-2.8142 -0.08,-2.8142 -1.042,0.2341 c -0.845,0.1898 -1.238,0.1323 -2.074,-0.3036 -1.009,-0.5261 -1.063,-0.5275 -2.455,-0.066 -1.374,0.4557 -1.422,0.504 -1.387,1.398 0.02,0.5094 0.06,2.1762 0.09,3.7042 0.06,2.9408 0.705,6.7052 2.265,13.1931 0.502,2.0902 0.913,3.8463 0.913,3.9026 0,0.056 -0.297,0.1022 -0.661,0.1022 -0.626,0 -0.662,0.079 -0.662,1.4552 v 1.4552 h 1.455 1.456 v -1.4552 -1.4552 h 1.719 1.72 v 1.4552 c 0,1.3661 0.04,1.4552 0.645,1.4552 0.561,0 0.669,0.1542 0.821,1.1719 0.1,0.6445 0.1,1.2993 0,1.4552 -0.112,0.181 -1.603,0.2834 -4.128,0.2834 -3.194,0 -3.953,0.07 -3.953,0.3668 0,0.5093 1.848,0.7459 5.18,0.6631 1.512,-0.038 2.803,-0.014 2.869,0.052 0.07,0.066 -0.825,1.3525 -1.98,2.8583 -1.155,1.5058 -2.101,2.8426 -2.101,2.9706 0,0.1281 0.536,0.2328 1.191,0.2328 1,0 1.191,0.082 1.191,0.5108 0,0.3282 -0.213,0.5409 -0.596,0.5953 -0.592,0.084 -0.595,0.1106 -0.667,5.4855 -0.07,4.9532 -0.03,5.4467 0.421,5.9531 0.271,0.3037 1.048,1.5928 1.726,2.8648 l 1.232,2.3126 v 3.0452 3.0452 h -3.429 -3.428 l -0.08,2.1828 -0.08,2.1828 -0.803,0.079 c -0.442,0.043 -0.889,-0.01 -0.993,-0.1102 z m -1.322,-65.3831 c -0.06,-0.4021 -0.112,-0.1359 -0.114,0.5917 0,0.7276 0.05,1.0567 0.111,0.7313 0.06,-0.3255 0.06,-0.9208 0,-1.323 z m 6.954,1.2532 c 0,-0.1455 -0.178,-0.2646 -0.397,-0.2646 -0.218,0 -0.396,0.1191 -0.396,0.2646 0,0.1455 0.178,0.2646 0.396,0.2646 0.219,0 0.397,-0.1191 0.397,-0.2646 z m 13.024,-42.9516 c -0.237,-0.7356 -0.27,-0.6127 -0.269,1.0151 0,1.7444 0.02,1.7931 0.269,0.837 0.182,-0.688 0.182,-1.2848 0,-1.8521 z m 85.137,104.9964 v -2.249 h -3.572 -3.572 v -2.9766 -2.9766 l 1.458,-2.6458 c 0.802,-1.4552 1.646,-2.7853 1.874,-2.9557 0.366,-0.2726 0.393,-0.9656 0.225,-5.7547 l -0.192,-5.4448 h -0.776 c -0.596,0 -0.755,-0.1073 -0.688,-0.463 0.07,-0.3489 0.397,-0.4829 1.343,-0.5436 0.689,-0.044 1.251,-0.1635 1.248,-0.2646 0,-0.1012 -0.896,-1.4273 -1.984,-2.947 -1.088,-1.5197 -1.979,-2.8591 -1.979,-2.9766 0,-0.1174 1.786,-0.2135 3.969,-0.2135 3.322,0 3.969,-0.064 3.969,-0.3903 0,-0.3251 -0.719,-0.4025 -4.3,-0.463 l -4.299,-0.073 -0.708,-2.1167 c -0.704,-2.1089 -2.406,-7.7772 -4.447,-14.8167 -0.591,-2.0373 -1.139,-3.9125 -1.219,-4.1672 -0.133,-0.4264 0.161,-0.463 3.71,-0.463 2.12,0 3.854,0.089 3.853,0.1985 0,0.1091 -0.239,0.5556 -0.528,0.9921 -0.497,0.7501 -0.526,1.2567 -0.527,9.1943 v 8.4005 h 0.926 c 0.697,0 0.932,-0.1145 0.949,-0.463 0.01,-0.2546 0.04,-0.8797 0.07,-1.389 l 0.04,-0.9261 1.64,-0.078 1.639,-0.078 0.08,1.4013 0.08,1.4013 1.257,0.081 1.256,0.081 v -1.3374 c 0,-1.161 -0.07,-1.3374 -0.529,-1.3374 -0.291,0 -0.529,-0.037 -0.529,-0.081 0,-0.045 0.408,-1.8604 0.907,-4.0349 1.832,-7.9925 1.992,-9.2579 1.929,-15.2712 -0.05,-4.764 0,-5.4866 0.339,-5.4204 0.218,0.042 0.4,0.2534 0.404,0.4697 0,0.2717 0.249,0.3751 0.793,0.3345 1.282,-0.096 2.614,0.3823 2.905,1.0433 0.25,0.5677 0.397,0.599 2.514,0.5362 l 2.248,-0.067 -1.303,0.7718 -1.302,0.7718 1.17,0.3251 1.17,0.3252 -1.676,0.382 c -1.79,0.4081 -2.954,0.2889 -2.954,-0.3026 0,-0.7009 -1.433,-0.8956 -2.879,-0.3913 l -0.842,0.2934 0.03,3.3447 c 0.03,2.6505 0.22,4.278 0.934,7.8425 0.495,2.4738 1.196,5.4504 1.558,6.6146 0.805,2.5881 0.805,2.566 0.07,2.464 -0.593,-0.083 -0.595,-0.073 -0.629,3.9852 l -0.03,4.068 -0.957,1.2829 -0.958,1.283 v 12.9714 c 0,12.7951 0,12.9715 -0.529,12.9715 -0.488,0 -0.53,0.1764 -0.53,2.249 v 2.2489 h -1.058 -1.058 z m 3.365,-61.4459 c -0.06,-0.4022 -0.113,-0.1359 -0.115,0.5917 0,0.7276 0.05,1.0567 0.111,0.7312 0.06,-0.3254 0.06,-0.9207 0,-1.3229 z m -78.507,58.1386 v -2.9104 h 2.117 2.116 v -2.2334 c 0,-1.2283 0.107,-2.2994 0.238,-2.3802 0.131,-0.081 1.143,-0.07 2.249,0.023 l 2.011,0.17 v 2.3424 2.3424 h 2.382 2.381 v -2.5135 -2.5135 h 2.381 2.381 v 2.5135 2.5135 h 1.72 1.72 v -2.5135 -2.5135 h 2.35 c 2.739,0 2.667,-0.083 2.673,3.1088 v 1.9182 h 1.587 1.588 v -2.5135 -2.5135 h 2.381 2.381 v 2.5135 2.5135 h 2.372 2.371 l 0.08,-2.4474 0.08,-2.4474 1.059,-0.086 c 0.582,-0.047 1.564,-0.01 2.182,0.082 l 1.125,0.1686 v 2.2327 2.2328 h 2.117 2.116 v 2.9104 2.9104 h -24.077 -24.077 z m 9.79,-6.35 v -2.3813 h -3.308 -3.307 v 2.249 2.2489 h -1.587 c -0.874,0 -1.588,-0.042 -1.588,-0.093 0,-0.3737 2.701,-5.7086 3.027,-5.9794 0.35,-0.2898 0.413,-1.1855 0.413,-5.8484 v -5.5063 l -0.728,-0.084 c -0.433,-0.05 -0.728,-0.2444 -0.728,-0.4806 0,-0.2858 0.352,-0.4195 1.257,-0.4775 0.691,-0.044 1.257,-0.1757 1.257,-0.2918 0,-0.1162 -0.963,-1.5086 -2.141,-3.0944 -2.697,-3.6325 -2.708,-3.6537 -3.988,-7.9982 -2.241,-7.6046 -4.713,-16.3299 -4.716,-16.647 0,-0.2478 0.86,-0.3307 3.437,-0.3307 1.891,0 3.439,0.095 3.439,0.2117 0,0.1164 -0.148,0.3595 -0.328,0.5401 -0.251,0.2513 -0.255,0.3742 -0.01,0.5223 0.172,0.1066 0.35,0.9053 0.394,1.7749 l 0.08,1.5812 h 0.926 0.926 l 0.08,-1.5214 0.08,-1.5213 h 1.442 1.442 v 1.4269 c 0,1.5157 0.197,1.7481 1.477,1.7481 0.606,0 0.64,-0.085 0.64,-1.5875 v -1.5875 l 1.521,-4e-4 1.522,-3e-4 -0.08,4.2337 -0.08,4.2337 h 0.674 0.674 v -19.8438 -19.8437 l 12.237,-10e-5 h 12.237 l -0.09,19.8648 -0.09,19.8649 0.615,-0.087 0.616,-0.087 -0.09,-4.1672 -0.08,-4.1672 h 1.606 1.607 v 1.5875 1.5875 h 1.059 1.058 v -1.5875 -1.5875 h 1.442 1.442 l 0.08,1.5213 0.08,1.5214 0.992,0.082 0.992,0.082 v -1.6034 -1.6035 h 1.588 1.587 v 2.8193 c 0,2.6353 0.04,2.8787 0.695,3.7297 l 0.694,0.9105 -1.114,3.877 c -2.474,8.6047 -2.16,7.8644 -4.902,11.5532 -1.384,1.8612 -2.517,3.485 -2.517,3.6086 0,0.1235 0.536,0.2246 1.191,0.2246 1.014,0 1.191,0.078 1.191,0.5292 0,0.388 -0.177,0.5291 -0.662,0.5291 h -0.661 v 5.4693 c 0,4.3039 0.08,5.5583 0.369,5.887 0.416,0.4705 3.07,5.5662 3.07,5.8942 0,0.1166 -0.714,0.212 -1.587,0.212 h -1.588 v -2.2489 -2.249 h -3.307 -3.307 v 2.3813 2.3812 h -1.191 -1.191 v -0.9922 c 0,-0.5457 -0.08,-1.6172 -0.169,-2.3812 l -0.167,-1.3891 h -1.947 -1.948 v -7.0881 c 0,-8.1237 -0.154,-9.0942 -1.932,-12.1466 -0.982,-1.6876 -5.211,-6.4299 -5.734,-6.4299 -0.408,0 -4.978,4.9693 -5.695,6.1929 -0.414,0.7065 -1.03,2.0483 -1.369,2.9818 -0.59,1.6252 -0.616,2.0118 -0.616,9.0936 v 7.3963 h -1.984 -1.985 v 2.3813 2.3812 h -1.322 -1.323 z m -1.059,-25.5362 v -4.1049 l -0.927,-0.9883 -0.927,-0.9883 -0.763,0.8307 c -0.632,0.6884 -0.795,1.1543 -0.952,2.7189 -0.105,1.0384 -0.105,2.9565 0,4.2625 l 0.188,2.3743 h 1.692 1.691 z m 34.396,0.418 c 0,-3.9407 -0.175,-4.7699 -1.242,-5.8886 -0.744,-0.7805 -0.819,-0.7506 -1.875,0.7528 -0.543,0.7726 -0.587,1.1316 -0.587,4.8287 v 3.994 h 1.852 1.852 z m -23.863,-38.273 -0.08,-5.1828 -0.733,-0.6299 c -0.612,-0.5266 -0.835,-0.583 -1.359,-0.3443 -1.067,0.4859 -1.215,1.2736 -1.215,6.4575 v 4.8823 h 1.736 1.735 z m 6.93,0.1761 c 0,-5.0004 0,-5.0079 -0.685,-5.8209 -0.876,-1.041 -1.762,-1.054 -2.775,-0.041 l -0.774,0.7734 v 5.0474 5.0474 h 2.117 2.117 z m 6.082,0.1781 c 0,-2.6558 -0.08,-5.1013 -0.166,-5.4346 -0.09,-0.3332 -0.497,-0.7787 -0.905,-0.9899 -0.694,-0.3586 -0.796,-0.3389 -1.554,0.2987 l -0.811,0.6827 v 5.1359 5.1358 h 1.719 1.72 z m -99.304,58.3627 c -0.1,-0.097 -0.176,-2.2997 -0.176,-4.8948 v -4.7184 h 1.852 1.852 v 2.3812 2.3813 h 1.191 1.19 v -2.3813 -2.3812 h 1.588 1.587 v 1.7859 c 0,2.63 0.147,2.9766 1.218,2.9766 h 0.895 v -2.3813 -2.3812 h 1.72 1.72 v 2.3972 2.3972 l 0.992,-0.082 0.992,-0.082 0.08,-2.3151 0.08,-2.3151 h 1.577 1.577 v 2.3812 2.3813 h 1.191 1.19 v -2.3813 -2.3812 h 1.72 1.72 v 4.8948 4.8948 h -12.788 c -7.034,0 -12.868,-0.079 -12.965,-0.1764 z m 45.385,-0.1411 c -0.222,-0.2225 -0.317,-1.6875 -0.317,-4.8948 v -4.5773 h 1.577 1.577 l 0.08,2.3151 0.08,2.3151 h 1.058 1.059 l 0.08,-2.3151 0.08,-2.3151 h 1.444 1.445 v 2.3812 2.3813 h 0.926 0.926 v -2.3813 -2.3812 h 1.578 1.577 l 0.08,2.3151 0.08,2.3151 h 0.926 0.926 l 0.08,-2.3151 0.08,-2.3151 h 1.434 1.435 l 0.08,2.3151 0.08,2.3151 1.124,0.081 1.125,0.081 v -2.3965 -2.3964 h 1.587 1.588 v 4.7342 c 0,4.0729 -0.06,4.7566 -0.419,4.8948 -0.23,0.088 -5.504,0.1606 -11.721,0.1606 -8.438,0 -11.383,-0.081 -11.62,-0.3175 z m 67.857,0.1411 c -0.1,-0.097 -0.176,-2.2997 -0.176,-4.8948 v -4.7184 h 1.587 1.588 v 1.7859 c 0,2.7014 0.13,2.9766 1.35,2.9766 h 1.028 v -2.3813 -2.3812 h 1.445 1.445 l 0.08,2.3151 0.08,2.3151 0.992,0.082 0.992,0.082 v -2.3972 -2.3972 h 1.577 1.577 l 0.08,2.3151 0.08,2.3151 h 0.794 0.794 l 0.08,-2.3151 0.08,-2.3151 h 1.434 1.435 l 0.08,2.3151 0.08,2.3151 1.124,0.081 c 1.273,0.092 1.195,0.2833 1.144,-2.7933 l -0.03,-1.9182 h 1.558 1.557 l 0.138,4.4317 c 0.08,2.4816 0.03,4.6356 -0.105,4.8948 -0.225,0.4304 -1.07,0.4631 -11.963,0.4631 -6.446,0 -11.8,-0.079 -11.897,-0.1764 z m 43.215,-4.7184 v -4.8948 h 1.72 1.72 v 2.3812 2.3813 h 1.19 1.191 v -2.3813 -2.3812 h 1.588 1.587 v 2.3812 2.3813 h 1.058 1.059 v -2.3813 -2.3812 h 1.72 1.719 v 2.3972 2.3972 l 0.993,-0.082 0.992,-0.082 0.08,-2.3151 0.08,-2.3151 h 1.416 1.417 l 0.189,2.3812 0.188,2.3813 h 1.163 1.162 v -2.3813 -2.3812 h 1.72 1.72 v 4.8948 4.8948 h -12.832 -12.833 z m -157.427,-7.6818 c 0,-0.078 0.95,-1.3876 2.112,-2.911 3.185,-4.1778 2.179,-1.3325 9.865,-27.9041 1.759,-6.0802 1.926,-6.9502 1.521,-7.9286 -0.29,-0.6995 -0.277,-0.8844 0.09,-1.2933 0.379,-0.4182 0.432,-1.4287 0.432,-8.1953 0,-4.2897 -0.104,-7.7182 -0.234,-7.7182 -0.4,0 -0.52,-1.0112 -0.176,-1.482 0.499,-0.683 1.733,-0.2948 1.733,0.5454 0,0.3524 -0.121,0.7155 -0.269,0.8069 -0.148,0.091 -0.197,0.2824 -0.109,0.4245 0.1,0.1584 1.019,0.1884 2.384,0.078 1.775,-0.144 2.462,-0.09 3.396,0.2665 1.378,0.5261 1.748,0.9136 1.983,2.0746 0.147,0.7268 0.35,0.9145 1.325,1.2255 1.004,0.3198 1.465,0.3113 3.579,-0.066 2.759,-0.4929 4.38,-0.5554 4.38,-0.1688 0,0.1456 -0.17,0.2646 -0.376,0.2646 -0.596,0 -4.98,2.3763 -4.598,2.4922 0.189,0.057 1.011,0.2269 1.826,0.3768 0.815,0.1499 1.887,0.449 2.381,0.6646 l 0.899,0.392 -0.794,0.022 c -0.436,0.012 -1.925,0.3321 -3.307,0.7114 -3.617,0.9924 -6.076,0.6268 -5.706,-0.8483 0.311,-1.2363 -2.727,-1.501 -6.002,-0.5231 l -1.521,0.4543 v 3.9344 c 0,2.6013 0.1,3.996 0.294,4.1162 0.192,0.1185 0.233,0.6393 0.12,1.4966 -0.181,1.3616 0.458,3.9789 3.697,15.1538 0.633,2.1828 1.88,6.6477 2.77,9.9219 1.732,6.3625 2.104,7.217 4.926,11.3109 l 1.687,2.4474 h -14.156 c -7.785,0 -14.155,-0.064 -14.155,-0.1411 z m 15.488,-51.2192 c 0.1,-0.9255 0.02,-1.8408 -0.232,-2.6147 l -0.387,-1.1906 -0.02,3.0427 c -0.02,3.1559 0.331,3.5751 0.637,0.7626 z m 29.948,51.0296 c 1.917,-2.4638 3.549,-4.7747 3.993,-5.6504 0.509,-1.0068 2.961,-9.1863 5.782,-19.2866 1.961,-7.0232 2.25,-8.3349 2.071,-9.3975 -0.09,-0.5412 -0.05,-1.9223 0.1,-3.0692 0.147,-1.147 0.355,-3.6927 0.463,-5.6572 l 0.196,-3.5719 0.325,4.2333 c 0.179,2.3284 0.469,4.9791 0.643,5.8906 0.249,1.3012 0.247,1.7412 0,2.0481 -0.219,0.2646 -0.264,0.7976 -0.139,1.6501 0.296,2.0093 7.017,25.1979 7.734,26.6794 0.357,0.7387 1.414,2.3773 2.349,3.6413 0.934,1.264 1.699,2.4157 1.699,2.5594 0,0.1684 -4.528,0.2613 -12.732,0.2613 -10.147,0 -12.681,-0.067 -12.476,-0.3307 z m 68.07,0.1271 c 0,-0.1119 0.784,-1.2728 1.741,-2.5797 0.957,-1.3068 1.956,-2.7928 2.22,-3.3021 0.561,-1.0832 1.684,-4.7769 5.149,-16.9333 2.769,-9.7139 3.121,-11.2116 2.73,-11.6029 -0.143,-0.1429 -0.183,-0.7684 -0.09,-1.4049 0.09,-0.6311 0.302,-3.1443 0.465,-5.5849 0.164,-2.4407 0.331,-4.4036 0.373,-4.3622 0.04,0.041 0.209,1.8597 0.372,4.0406 0.163,2.1809 0.419,4.5183 0.568,5.1942 0.204,0.9263 0.188,1.3609 -0.07,1.7654 -0.488,0.7814 0.06,2.9275 5.561,21.6946 1.036,3.5379 2.112,6.8788 2.39,7.4243 0.279,0.5454 1.23,1.9674 2.114,3.16 0.884,1.1926 1.608,2.2867 1.608,2.4314 0,0.1708 -4.413,0.2631 -12.568,0.2631 -6.912,0 -12.568,-0.092 -12.568,-0.2036 z m 42.517,0.034 c -0.09,-0.093 0.284,-0.7184 0.839,-1.389 1.192,-1.4395 3.054,-4.2295 3.716,-5.5646 0.258,-0.5206 0.914,-2.5538 1.459,-4.5183 0.545,-1.9646 1.632,-5.8369 2.416,-8.6052 0.783,-2.7683 2.199,-7.9271 3.145,-11.4642 1.625,-6.0758 1.697,-6.4663 1.301,-7.0714 -0.384,-0.5856 -0.384,-0.6964 0,-1.2926 0.369,-0.5625 0.427,-1.7082 0.427,-8.3344 0,-5.2503 -0.09,-7.6822 -0.281,-7.6822 -0.158,0 -0.245,-0.3769 -0.198,-0.8599 0.07,-0.7597 0.175,-0.8599 0.873,-0.8599 0.787,0 1.139,0.5261 0.853,1.2722 -0.286,0.7471 0.03,0.8444 2.767,0.8444 2.452,0 2.921,0.073 3.572,0.5554 0.455,0.3374 0.784,0.8565 0.838,1.3229 0.125,1.0697 0.435,1.3568 1.768,1.6413 0.815,0.1737 1.855,0.1362 3.488,-0.1258 2.424,-0.3887 5.184,-0.3884 4.18,5e-4 -0.291,0.1127 -1.482,0.675 -2.647,1.2496 -1.164,0.5746 -2.285,1.0447 -2.491,1.0447 -0.843,0 0.06,0.3413 1.757,0.6649 0.996,0.1898 2.224,0.5248 2.728,0.7445 0.813,0.3541 0.845,0.402 0.277,0.4211 -0.352,0.012 -1.924,0.3335 -3.494,0.7147 -2.075,0.5037 -3.178,0.6448 -4.035,0.5162 -1.26,-0.1889 -1.903,-0.6987 -1.665,-1.3189 0.441,-1.1508 -2.221,-1.4972 -5.251,-0.6831 l -2.245,0.6033 v 3.9155 c 0,2.5875 0.1,3.9772 0.294,4.0974 0.191,0.1176 0.234,0.6348 0.124,1.466 -0.203,1.5322 -0.117,1.8891 3.08,12.8032 1.322,4.5111 3.087,10.5618 3.923,13.4459 1.395,4.811 1.646,5.4335 3.042,7.5406 0.836,1.2633 1.98,2.8491 2.541,3.5242 0.56,0.675 1.019,1.3001 1.019,1.389 0,0.2166 -27.911,0.2087 -28.127,-0.01 z m 14.752,-51.8209 c 0,-1.0186 -0.133,-2.0902 -0.31,-2.3812 -0.265,-0.4359 -0.322,-0.016 -0.322,2.3812 0,2.3493 0.06,2.8084 0.31,2.3813 0.171,-0.2911 0.316,-1.3626 0.322,-2.3813 z m -122.348,36.579 v -8.6648 l -1.442,-1.7863 -1.442,-1.7862 4.39,-0.073 c 2.414,-0.04 4.446,-0.017 4.514,0.052 0.228,0.228 -5.206,19.5479 -5.774,20.526 -0.134,0.2311 -0.233,-3.2218 -0.238,-8.2679 z m 72.677,-11.445 -0.713,-1.4538 h 1.188 c 1.308,0 1.382,0.1346 0.887,1.6142 -0.47,1.406 -0.601,1.3905 -1.362,-0.1604 z m -1.578,-2.7917 c -0.403,-0.2401 -0.463,-0.7205 -0.463,-3.7023 v -3.4264 h 1.323 1.322 v 1.5875 c 0,1.5815 0,1.5875 0.781,1.5875 0.765,0 0.782,-0.031 0.86,-1.5214 0.06,-1.1407 0.179,-1.5214 0.476,-1.5214 0.567,0 0.446,3.4825 -0.192,5.5563 l -0.489,1.5875 -1.578,0.064 c -0.867,0.035 -1.786,-0.06 -2.04,-0.2116 z m 9.631,-0.1834 c -0.133,-0.2547 -0.493,-1.4626 -0.8,-2.6843 -0.648,-2.5846 -0.544,-4.261 0.264,-4.261 0.43,0 0.496,0.2125 0.496,1.5875 v 1.5875 h 1.058 1.058 v -1.5875 -1.5875 h 1.456 1.455 v 1.5875 1.5875 h 0.794 0.793 v -1.5875 -1.5875 h 1.323 1.323 v 3.4461 3.4461 l -0.678,0.2581 c -0.374,0.1419 -2.394,0.258 -4.489,0.258 -3.36,0 -3.839,-0.055 -4.053,-0.463 z m -11.682,-8.1538 c 0,-0.083 0.543,-0.8166 1.207,-1.6311 0.663,-0.8145 1.361,-1.7887 1.551,-2.165 0.493,-0.9768 2.387,-7.2355 5.328,-17.6127 2.193,-7.7379 2.512,-9.1101 2.287,-9.844 -0.197,-0.6397 -0.172,-0.9713 0.1,-1.3275 0.561,-0.7394 0.537,-13.2208 -0.03,-13.8433 -0.528,-0.5834 -0.23,-1.3159 0.535,-1.3159 0.689,0 0.959,0.4801 0.74,1.3161 -0.141,0.5383 -0.09,0.5612 0.878,0.373 2.797,-0.5451 5.291,-0.011 5.552,1.1887 0.08,0.3818 0.194,0.8367 0.247,1.011 0.219,0.718 2.186,0.9264 4.47,0.4733 1.2,-0.2383 2.589,-0.3945 3.086,-0.3471 0.854,0.081 0.771,0.1496 -1.533,1.2667 -1.339,0.6494 -2.401,1.2154 -2.358,1.2578 0.04,0.042 0.767,0.2047 1.61,0.3606 3.25,0.6008 3.239,0.7445 -0.124,1.6019 -3.026,0.7716 -4.446,0.8172 -5.231,0.1683 -0.186,-0.1531 -0.273,-0.4797 -0.195,-0.7259 0.1,-0.303 -0.08,-0.5474 -0.536,-0.7564 -0.998,-0.4549 -2.49,-0.3777 -4.461,0.231 l -1.748,0.5398 v 3.4133 c 0,2.1568 0.105,3.4783 0.286,3.5898 0.178,0.1102 0.224,0.6379 0.121,1.4047 -0.179,1.3364 0.411,3.5945 4.124,15.7803 3.573,11.7276 3.548,11.666 6.004,14.9283 l 0.614,0.8144 h -6.104 -6.103 l -0.02,-0.8599 c -0.04,-1.9147 -0.94,-10.6722 -1.131,-10.9802 -0.331,-0.5305 -0.947,-0.3818 -1.097,0.2646 -0.117,0.5046 -0.923,10.264 -0.928,11.2448 0,0.2482 -0.894,0.3307 -3.574,0.3307 -1.964,0 -3.572,-0.067 -3.572,-0.1501 z m 11.869,-42.8447 c 0,-0.7276 -0.102,-1.561 -0.227,-1.8521 -0.149,-0.347 -0.228,0.2902 -0.228,1.8521 0,1.562 0.08,2.1992 0.228,1.8521 0.125,-0.291 0.227,-1.1245 0.227,-1.8521 z m -54.944,34.3743 -1.639,-1.9233 v -7.0312 -7.0312 h -0.662 c -0.364,0 -0.661,-0.049 -0.661,-0.1085 0,-0.06 0.355,-1.1957 0.789,-2.5246 0.966,-2.9552 2.389,-9.6732 2.339,-11.0461 -0.02,-0.5529 0.07,-1.9577 0.195,-3.1219 l 0.231,-2.1166 0.226,1.852 c 0.124,1.0187 0.225,2.507 0.225,3.3073 0,2.3867 1.828,10.4967 3.001,13.2954 0.156,0.3721 0.06,0.463 -0.496,0.463 -0.648,0 -0.689,0.076 -0.679,1.2567 l 0.01,1.2568 0.803,-0.926 c 0.442,-0.5093 1.086,-1.4762 1.432,-2.1486 0.773,-1.5051 4.682,-13.1426 6.342,-18.8858 0.674,-2.3283 1.511,-5.1858 1.862,-6.35 1.402,-4.6574 3.827,-13.4754 3.827,-13.918 0,-0.2588 -0.119,-0.5441 -0.265,-0.6341 -0.369,-0.2285 -0.315,-1.4989 0.09,-2.0279 0.251,-0.3299 0.349,-2.5467 0.392,-8.8381 0.05,-7.3591 0,-8.4553 -0.363,-8.8628 -0.238,-0.2627 -0.383,-0.7917 -0.335,-1.216 0.07,-0.632 0.207,-0.751 0.851,-0.751 0.98,0 1.481,0.7103 1.022,1.4464 -0.545,0.8718 0.339,1.1321 2.633,0.7761 4.183,-0.6489 7.354,0.5029 7.354,2.6708 0,0.8042 0.127,1.0348 0.728,1.317 1.183,0.5567 4.209,0.6325 6.643,0.1664 2.341,-0.4483 4.329,-0.5189 5.184,-0.1842 0.434,0.1695 0.37,0.2312 -0.396,0.3826 -0.503,0.099 -2.105,0.7662 -3.56,1.4821 -1.455,0.7159 -2.884,1.3875 -3.175,1.4924 -0.401,0.1447 -0.21,0.2448 0.794,0.4147 3.513,0.5946 4.444,0.8066 5.481,1.2469 l 1.121,0.4758 -1.582,0.1838 c -0.869,0.1011 -2.95,0.5509 -4.623,0.9995 -3.221,0.8634 -5.001,0.9119 -6.536,0.1783 -0.793,-0.3787 -1.151,-1.4683 -0.595,-1.8116 0.564,-0.349 -0.798,-0.856 -2.658,-0.9891 -1.641,-0.1174 -5.712,0.6346 -6.877,1.2703 -0.327,0.1787 -0.379,0.876 -0.308,4.1379 0.05,2.1577 0.195,4.0362 0.328,4.1744 0.336,0.3499 0.303,1.6639 -0.05,1.881 -0.446,0.2755 -0.125,1.7985 1.724,8.1864 7.314,25.2649 9.729,32.214 11.902,34.2435 l 0.686,0.6414 v -1.6336 -1.6336 h -0.803 c -0.703,0 -0.77,-0.062 -0.537,-0.4959 1.211,-2.2632 3.182,-12.3231 3.35,-17.0989 0.162,-4.6032 0.43,-5.4723 0.694,-2.2489 0.113,1.3824 0.203,3.0595 0.201,3.7268 0,2.2707 2.345,12.6776 3.616,15.9898 0.131,0.3394 0.03,0.3856 -0.534,0.2442 l -0.695,-0.1745 v 5.3204 5.3203 h -1.587 c -2.091,0 -2.054,0.4815 0.05,0.5827 0.898,0.043 1.672,0.2001 1.721,0.3483 0.05,0.1482 -0.399,0.9189 -0.995,1.7127 -0.597,0.7937 -1.52,2.1882 -2.053,3.0988 -0.812,1.3907 -1.084,1.6565 -1.695,1.6608 l -0.728,0.01 v -6.8792 -6.8792 h -14.949 -14.949 v 4.6127 4.6126 l 0.704,0.084 0.704,0.084 -0.06,2.2448 c -0.04,1.3761 -0.181,2.3206 -0.373,2.4407 -0.172,0.1078 -0.735,0.1804 -1.253,0.1613 -0.824,-0.03 -1.143,-0.2721 -2.579,-1.9579 z m 19.792,-20.4964 v -3.9814 l -0.935,-1.4616 c -0.514,-0.8039 -1.08,-1.4159 -1.257,-1.3601 -0.177,0.056 -0.709,0.6731 -1.182,1.3719 l -0.86,1.2704 v 4.0712 4.0711 h 2.117 2.117 z m -0.819,-50.9195 c 0,-0.7276 -0.173,-1.7992 -0.364,-2.3813 -0.323,-0.9793 -0.349,-0.7816 -0.353,2.6459 0,3.6181 0,3.6734 0.364,2.3812 0.202,-0.7276 0.361,-1.9182 0.353,-2.6458 z" id="path54" /></g></svg>