<?xml version='1.0' encoding='utf-8'?>
<svg xmlns="http://www.w3.org/2000/svg" width="349.13263mm" height="277.05496mm" viewBox="0 0 349.13263 277.05496" version="1.1" id="svg5" xml:space="preserve"><defs id="defs2" /><g id="layer1"><path style="fill:#000000;stroke-width:1" d="m 128.14390000000003 276.8899999999994 c -30.3837,-0.379 -52.6192,-1.086 -72.0537,-2.296 -6.8831,-0.428 -8.0576,-0.589 -9.468,-1.293 -2.8476,-1.422 -4.7233,-4.179 -5.4072,-7.952 -0.6786,-3.745 0.1199,-6.556 2.6262,-9.235 1.1385,-1.217 1.4598,-1.787 1.2199,-2.167 -0.5453,-0.862 -0.376,-2.664 0.3333,-3.565 0.6612,-0.841 0.6599,-0.884 -0.1667,-3.31 -0.4613,-1.354 -0.8425,-3.055 -0.8465,-3.782 0,-0.984 -0.1573,-1.323 -0.5853,-1.323 -1.7531,0 -4.1221,-4.529 -5.9618,-11.396 -1.3278,-4.959 -1.1305,-6.781 0.9732,-8.962 l 1.0958,-1.136 -1.6997,-5.14 c -0.9372,-2.838 -2.3917,-6.355 -3.2476,-7.857 -0.8518,-1.494 -1.6357,-3.061 -1.741,-3.481 -0.1067,-0.42 0.1399,-1.97 0.5452,-3.445 0.404,-1.474 0.7346,-3.133 0.7346,-3.683 0,-0.551 -1.8851,-6.701 -4.1901,-13.665 -5.4899,-16.59 -12.0663,-36.788 -13.4421,-41.289 l -1.0958,-3.582 -1.9411,-0.949 c -4.1207,-2.016 -9.0813,-8.264 -11.4783,-14.457 -4.5954,-11.875 -2.3304,-22.831 5.8058,-28.09 10.2306,-6.613 22.4635,-3.008 27.8894,8.216 0.8745,1.812 1.7717,4.026 1.9917,4.922 l 0.4012,1.629 3.4089,0.244 c 9.1227,0.65 16.1177,1.961 22.9287,4.294 l 4.706,1.61 2.8636,-2.763 2.8636,-2.764 -0.093,-4.584 c -0.144,-7.187 1.2785,-11.051 5.6765,-15.416 6.3404,-6.291 16.6843,-8.102 24.8271,-4.347 l 2.5156,1.16 7.0084,-3.597 c 7.4469,-3.821 13.1008,-7.338 18.3294,-11.401 4.3673,-3.393 11.429,-9.884 11.429,-10.504 0,-0.278 -0.4786,-1.282 -1.0625,-2.233 -2.3797,-3.867 -6.6977,-14.246 -6.6977,-16.098 0,-0.723 0.2759,-1.03 1.3198,-1.467 2.1983,-0.918 9.0214,-2.217 13.774,-2.621 2.4663,-0.211 4.5167,-0.415 4.558,-0.455 0.04,-0.04 -0.1493,-0.817 -0.4226,-1.728 -1.0092,-3.354 -2.7409,-12.832 -2.7836,-15.235 l -0.04,-2.477 1.1399,-0.106 c 0.6959,-0.07 2.3036,0.357 4.1194,1.086 l 2.9795,1.196 0.596,-1.616 c 0.9865,-2.674 4.9646,-10.133 7.3336,-13.749 2.7449,-4.19 4.3354,-6.031 5.2099,-6.031 1.5691,0 8.6641,11.497 11.973,19.4 0.4466,1.067 0.8465,1.989 0.8905,2.051 0.04,0.07 1.0065,-0.354 2.1424,-0.922 3.1688,-1.585 4.5326,-1.954 5.4378,-1.469 0.6839,0.366 0.7399,0.597 0.532,2.225 -0.1853,1.453 -2.4917,13.206 -3.2809,16.721 -0.1693,0.753 -0.067,0.794 1.8904,0.797 3.1795,0 8.0015,0.633 12.4755,1.626 5.2673,1.171 5.8325,1.448 5.7726,2.832 -0.08,1.708 -2.0984,6.883 -5.002,12.785 l -2.6716,5.428 2.6263,2.512 c 7.3203,7.003 17.6308,14.322 27.652,19.632 l 4.1221,2.183 2.7089,-0.806 c 5.8179,-1.731 12.8302,-1.207 18.0535,1.35 3.4435,1.685 7.5242,5.643 9.092,8.818 1.5678,3.178 2.3103,6.876 2.1304,10.626 l -0.1467,3.088 1.6411,0.584 c 2.0144,0.714 5.8578,3.648 6.9923,5.338 0.4626,0.686 0.9479,1.247 1.0799,1.247 0.1333,0 1.5784,-0.49 3.2169,-1.091 8.1815,-3 14.8472,-4.425 23.8766,-5.102 2.8862,-0.218 3.2622,-0.323 3.2622,-0.918 0,-1.334 2.2223,-6.389 3.9301,-8.945 3.7181,-5.557 8.5681,-8.281 14.7458,-8.281 5.5099,0 9.8533,1.746 13.6048,5.467 3.7674,3.739 5.4619,8.107 5.4619,14.087 0,5.898 -1.5558,11.382 -4.81,16.954 -2.0904,3.579 -6.2605,7.807 -9.0201,9.144 -1.925,0.933 -2.0383,1.063 -2.5809,2.97 -0.7346,2.582 -6.2031,20.169 -9.504,30.565 -1.4158,4.462 -3.8035,12.11 -5.3046,16.996 l -2.7289,8.883 1.1012,3.206 c 0.6052,1.764 1.1011,3.405 1.1011,3.648 0,0.243 -0.7359,1.625 -1.6357,3.071 -1.1372,1.826 -2.2051,4.353 -3.5022,8.279 l -1.8651,5.648 1.1759,1.078 c 2.3663,2.167 2.3943,5.008 0.1199,12.119 -1.4837,4.648 -2.5476,6.634 -4.0127,7.498 -0.9585,0.566 -1.2172,0.944 -1.2172,1.78 0,1.309 -0.9945,5.241 -1.4731,5.82 -0.2413,0.292 -0.1746,0.677 0.208,1.225 0.6239,0.891 0.7385,2.824 0.2239,3.786 -0.2666,0.498 -0.08,0.879 0.9119,1.829 2.2637,2.173 2.7756,3.565 2.7743,7.549 0,3.151 -0.1067,3.719 -0.9532,5.336 -0.5253,0.995 -1.4758,2.329 -2.113,2.966 -2.0984,2.1 -3.3649,2.419 -11.8144,2.98 -10.8544,0.72 -30.6916,1.536 -47.0226,1.933 -19.8318,0.483 -91.9482,0.704 -119.0456,0.367 z m -74.768,-6.7 c 9.0214,-1.12 34.627,-2.961 49.0196,-3.525 50.7794,-1.989 118.943,-1.759 159.7852,0.541 9.2773,0.523 22.5194,1.58 28.9239,2.31 1.745,0.2 4.6939,0.451 6.551,0.56 l 3.3769,0.198 1.3518,-1.188 c 0.7439,-0.653 1.6411,-1.824 1.9944,-2.601 1.3318,-2.929 0.4506,-7.076 -1.7811,-8.395 -1.7678,-1.044 -17.2949,-3.358 -31.0702,-4.631 -25.5271,-2.359 -53.2271,-3.38 -91.6723,-3.377 -39.5916,0 -70.2459,1.016 -96.0729,3.181 -14.7499,1.236 -32.994,3.841 -35.6136,5.084 -1.8584,0.883 -2.7396,2.467 -2.7396,4.925 0,3.196 1.3932,5.742 3.7048,6.768 1.3012,0.579 0.8959,0.564 4.2421,0.15 z m 4.0861,-17.085 c 8.7001,-1.362 16.4016,-2.253 26.0616,-3.012 36.4294,-2.865 92.9413,-3.852 141.2678,-2.465 24.6364,0.706 56.3132,3.152 70.3686,5.433 4.622,0.75 4.8193,0.734 5.0473,-0.424 0.3252,-1.661 0.5652,-1.59 -11.0425,-3.264 -26.1496,-3.77 -58.2143,-5.285 -111.992,-5.286 -56.9038,0 -91.7802,1.73 -117.6338,5.842 -8.5388,1.358 -9.6093,1.773 -8.9574,3.474 0.2773,0.72 0.424,0.713 6.8804,-0.298 z m 1.2451,-5.997 c 11.7317,-1.927 19.4012,-2.737 36.8094,-3.888 40.3942,-2.669 116.9646,-2.843 156.9642,-0.356 15.7871,0.983 31.0983,2.509 41.974,4.185 3.0076,0.464 5.5712,0.74 5.6966,0.615 0.1199,-0.12 0.5559,-1.403 0.9572,-2.836 0.7185,-2.574 0.7185,-2.617 0.053,-3.469 -1.4598,-1.856 -2.197,-4.67 -2.381,-9.092 -0.3226,-7.739 1.8677,-12.515 5.7405,-12.521 1.0519,0 1.0945,-0.08 3.0889,-5.379 1.1118,-2.96 2.021,-5.565 2.0197,-5.791 0,-0.523 -4.2021,-1.915 -9.8799,-3.274 -19.0653,-4.569 -46.2681,-6.839 -102.1147,-8.521 -38.6785,-1.165 -109.1164,2.103 -134.2569,6.229 -8.4307,1.384 -21.0329,4.346 -22.5967,5.313 -0.1467,0.09 0.2199,1.469 0.8159,3.06 0.5959,1.592 1.5664,4.206 2.1583,5.809 0.5919,1.602 1.2518,2.893 1.4651,2.867 2.1811,-0.253 4.2608,1.563 5.4993,4.801 0.6039,1.58 0.8518,3.108 0.9785,6.025 0.1906,4.415 -0.1987,6.823 -1.5518,9.61 l -0.9119,1.879 0.6106,2.177 c 0.7146,2.545 1.1559,3.766 1.3612,3.766 0.08,0 3.4581,-0.544 7.5042,-1.209 z m 15.4218,-8.615 c -6.2871,-4.555 -11.0931,-17.056 -8.6361,-22.466 1.2692,-2.793 3.9474,-4.232 7.399,-3.97 2.4903,0.188 4.174,0.983 6.0191,2.847 2.2077,2.229 2.9676,4.573 2.9996,9.251 0.027,3.361 -0.1067,4.291 -0.9826,6.958 -1.0238,3.122 -3.3248,7.024 -4.6646,7.908 -0.6559,0.434 -0.8839,0.377 -2.1344,-0.528 z m 199.2222,-0.301 c -4.1554,-4.373 -6.4724,-13.834 -4.782,-19.527 1.7238,-5.806 7.4243,-8.604 12.4369,-6.107 2.2317,1.112 3.4862,2.841 3.8834,5.354 0.8253,5.22 -2.3743,13.799 -7.0563,18.921 -2.6623,2.914 -2.9276,2.994 -4.482,1.359 z m -157.5881,-0.756 c -5.5526,-4.054 -10.0173,-12.365 -10.0173,-18.648 0,-4.042 1.6225,-6.89 4.99,-8.754 1.7571,-0.974 2.1463,-1.046 5.5925,-1.046 4.2807,0 6.0032,0.618 8.4095,3.025 2.4076,2.407 3.0342,4.152 3.0262,8.438 0,4.305 -0.7026,6.753 -3.0516,10.739 -1.6304,2.768 -5.9018,7.25 -6.9083,7.25 -0.3653,0 -1.2838,-0.452 -2.041,-1.004 z m 57.4744,-0.523 c -4.2261,-3.11 -7.7695,-8.02 -9.4906,-13.147 -0.8093,-2.408 -0.9146,-3.216 -0.7866,-5.961 0.1787,-3.791 0.8279,-5.267 3.3515,-7.628 2.385,-2.232 5.1006,-3.233 8.7454,-3.225 3.1423,0.01 5.0073,0.559 7.6803,2.273 7.1843,4.611 6.743,14.206 -1.0945,23.817 -1.0132,1.242 -4.7127,4.462 -5.9325,5.163 -0.2226,0.133 -1.3358,-0.453 -2.473,-1.292 z m 57.6318,-0.04 c -3.5555,-2.896 -7.1617,-8.611 -8.1922,-12.979 -1.5878,-6.733 0.2106,-11.551 5.2353,-14.024 5.7711,-2.842 13.2821,-0.957 15.7924,3.962 2.4769,4.857 -0.3627,14.086 -6.2645,20.361 -1.4744,1.567 -3.1235,3.164 -3.6634,3.549 l -0.9826,0.7 z m -186.4014,-31.206 c 4.3994,-1.275 11.6744,-2.961 15.9537,-3.701 14.5806,-2.518 44.0924,-4.829 80.0686,-6.271 16.8869,-0.677 57.6158,-0.584 76.0118,0.173 50.3701,2.073 75.2879,4.816 90.2724,9.932 3.2915,1.124 3.6795,1.119 4.4607,-0.08 1.5491,-2.361 1.5625,-2.471 0.6199,-4.975 -1.5584,-4.139 -1.4904,-4.525 3.4689,-19.804 6.3897,-19.686 14.0526,-43.971 14.0513,-44.531 0,-0.145 -0.5599,-0.265 -1.2452,-0.265 -0.6852,0 -1.821,-0.24 -2.5236,-0.533 -0.7026,-0.294 -1.3252,-0.487 -1.3825,-0.428 -0.053,0.05 -0.7452,2.611 -1.5264,5.673 -1.6705,6.545 -6.2258,20.38 -8.8508,26.874 -2.3996,5.939 -5.7645,12.566 -8.4401,16.627 -2.3023,3.493 -6.8723,8.559 -9.1387,10.129 l -1.4011,0.972 -6.4671,-1.081 c -6.1658,-1.031 -18.8,-2.72 -26.7482,-3.576 -4.9353,-0.532 -6.2831,-1.193 -8.1081,-3.979 -2.6557,-4.054 -4.1661,-9.059 -4.99,-16.535 -0.7239,-6.57 0.2186,-29.216 1.6731,-40.176 l 0.2386,-1.805 -1.1971,0.299 c -1.7185,0.428 -3.7688,0.347 -4.2821,-0.172 -0.3559,-0.359 -0.2493,-0.373 0.5453,-0.08 1.3984,0.528 3.6674,-0.05 7.103,-1.828 2.2303,-1.149 3.6114,-2.231 6.391,-5.01 2.9636,-2.961 3.7848,-4.035 5.006,-6.541 2.097,-4.309 2.6609,-6.837 2.4743,-11.111 -0.196,-4.474 -1.0745,-6.866 -3.5008,-9.519 -4.9127,-5.376 -14.7419,-6.777 -21.5943,-3.079 -5.3419,2.883 -8.3708,8.651 -8.3748,15.95 0,7.469 3.3009,14.62 8.6854,18.786 1.0492,0.812 1.7811,1.559 1.6291,1.661 -0.1533,0.107 -0.6399,2.091 -1.0825,4.42 -2.6942,14.164 -7.6082,30.595 -11.7756,39.366 -3.1169,6.559 -9.136,13.881 -12.8022,15.573 l -1.7157,0.791 h -41.6221 -41.622 l -1.6291,-0.802 c -2.9929,-1.475 -7.271,-5.714 -10.2972,-10.204 -3.2009,-4.749 -8.7494,-17.695 -11.4731,-26.773 -1.2798,-4.267 -4.21,-16.024 -4.8259,-19.363 -0.3213,-1.745 -0.7013,-3.298 -0.8452,-3.449 -0.144,-0.151 -0.6453,0.03 -1.1159,0.391 -1.6677,1.301 -3.1982,1.893 -4.338,1.679 l -1.1052,-0.208 0.6039,8.554 c 1.9331,27.356 0.7266,44.144 -3.6288,50.499 -1.3985,2.043 -2.1624,2.275 -11.1597,3.392 -10.4585,1.298 -14.622,1.878 -21.8822,3.051 l -5.7379,0.927 -1.949,-1.342 c -4.6007,-3.169 -10.1053,-10.475 -14.0874,-18.698 -3.8141,-7.876 -8.2641,-19.998 -12.1889,-33.2 l -2.2157,-7.453 -1.4398,0.655 c -0.7932,0.36 -1.8037,0.657 -2.2463,0.662 -0.4426,0 -0.8866,0.22 -0.9865,0.48 -0.348,0.907 5.7925,20.048 15.939,49.684 l 3.4662,10.123 -0.424,1.87 c -0.2319,1.029 -0.6199,2.556 -0.8612,3.393 -0.4092,1.424 -0.3732,1.644 0.576,3.455 0.6639,1.268 1.1798,1.872 1.4971,1.751 0.2666,-0.107 2.1077,-0.656 4.0927,-1.231 z m 200.602,-83.891 c -6.6657,-7.415 -7.7602,-17.952 -2.4223,-23.335 5.5379,-5.586 15.9804,-2.97 17.6335,4.415 0.8652,3.869 -1.1345,9.403 -5.2566,14.549 -2.269,2.83 -6.4378,6.399 -7.4776,6.399 -0.36,0 -1.4745,-0.912 -2.477,-2.028 z m 40.2569,26.667 c 7.4963,-4.114 14.6486,-9.479 21.7289,-16.299 5.1233,-4.934 5.1313,-4.946 4.466,-7.312 -0.2959,-1.056 -0.6265,-4.158 -0.7372,-6.937 -0.18,-4.482 -0.268,-5.026 -0.8199,-5.026 -1.985,0 -8.5281,0.859 -12.2529,1.607 -4.366,0.877 -9.8239,2.472 -12.8182,3.743 l -1.6264,0.691 0.9905,2.888 c 2.5463,7.421 2.277,14.719 -0.8838,23.964 -0.8466,2.473 -1.4972,4.497 -1.4465,4.497 0.053,0 1.5798,-0.817 3.3995,-1.816 z m -217.3982,-1.446 c -3.4702,-9.786 -3.9715,-18.42 -1.4718,-25.351 0.4626,-1.286 0.8425,-2.504 0.8425,-2.709 0,-0.506 -5.0793,-2.433 -9.116,-3.46 -3.6288,-0.922 -11.2184,-2.069 -16.0164,-2.42 l -3.0862,-0.224 v 3.963 c 0,2.179 -0.1813,5.376 -0.4026,7.104 l -0.404,3.142 3.6662,3.702 c 4.9233,4.973 9.4706,8.758 14.7765,12.301 4.3821,2.925 11.1078,6.809 11.8543,6.843 0.2293,0.01 -0.027,-1.177 -0.6425,-2.891 z m 111.4827,1.263 c 15.8391,-8.538 29.9464,-19.201 41.898,-31.668 l 5.0553,-5.273 -0.2573,-1.429 c -0.1413,-0.787 -0.2493,-2.937 -0.2387,-4.781 0.027,-3.978 0.8986,-7.223 2.809,-10.405 1.3611,-2.269 4.3194,-5.502 5.9018,-6.45 0.5333,-0.318 0.9692,-0.665 0.9692,-0.769 0,-0.107 -1.1518,-0.781 -2.557,-1.508 -8.7201,-4.499 -23.5859,-15.443 -30.1663,-22.204 l -1.8624,-1.914 2.161,-4.388 c 2.081,-4.226 4.9086,-10.609 5.4112,-12.219 0.216,-0.687 0.053,-0.831 -1.5171,-1.297 -3.8701,-1.149 -8.7014,-1.702 -13.7687,-1.577 -3.1595,0.08 -4.9633,0 -4.9593,-0.23 0,-0.194 0.7812,-4.4 1.7278,-9.347 0.9465,-4.947 1.6851,-9.033 1.6411,-9.081 -0.04,-0.05 -1.4825,0.388 -3.1982,0.967 -1.7158,0.58 -3.1476,1.016 -3.1809,0.97 -0.04,-0.05 -0.5173,-1.358 -1.0719,-2.909 -1.2838,-3.584 -4.678,-10.319 -7.3669,-14.614 -2.4357,-3.892 -1.6664,-4.297 -6.0685,3.201 -2.5223,4.299 -3.4915,6.259 -6.3644,12.883 l -0.6386,1.472 -3.1569,-1.195 c -1.737,-0.657 -3.1888,-1.159 -3.2275,-1.118 -0.08,0.09 2.489,13.934 2.9996,16.126 0.7479,3.207 1.1118,2.997 -5.1699,3.01 -5.33,0.01 -9.2094,0.508 -12.7262,1.628 -1.0399,0.33 -1.1479,0.48 -0.9426,1.301 0.388,1.545 2.9529,7.372 5.3646,12.19 l 2.2783,4.549 -2.7622,2.801 c -8.4921,8.612 -21.1023,17.463 -32.0608,22.502 l -3.0929,1.422 1.8358,1.799 c 4.374,4.282 6.5324,9.121 6.995,15.68 l 0.2093,2.96 5.6792,5.554 c 11.621,11.365 23.0753,20.227 36.0135,27.868 5.7818,3.412 12.9115,7.125 13.702,7.133 0.3586,0 2.0251,-0.734 3.7035,-1.64 z m 90.3537,-4.964 c 2.657,-8.604 2.1784,-17.714 -1.1798,-22.437 l -1.1958,-1.682 -1.7798,2.235 c -2.7609,3.472 -5.2046,5.586 -9.5453,8.26 -0.1826,0.107 2.6117,4.182 5.1726,7.535 2.3903,3.128 7.1097,8.414 7.5429,8.447 0.1387,0.01 0.5813,-1.05 0.9852,-2.358 z m -185.1735,-0.652 c 3.4782,-4.078 8.4828,-11.256 8.0589,-11.557 -0.067,-0.05 -1.2425,-0.749 -2.601,-1.551 -1.3571,-0.799 -3.8741,-2.678 -5.5925,-4.171 -3.3636,-2.926 -3.3742,-2.928 -4.1448,-0.503 -0.5639,1.775 -0.8092,9.672 -0.3866,12.393 0.4466,2.869 1.8304,8.066 2.1464,8.066 0.1333,0 1.2625,-1.205 2.5196,-2.677 z m -61.8138,-7.394 c 2.7289,-1.138 5.0686,-4.444 6.1044,-8.624 0.5986,-2.417 0.6013,-9.324 0,-12.169 -1.1931,-5.683 -3.2328,-10.237 -5.9284,-13.235 -3.2822,-3.65 -8.0829,-4.709 -12.0716,-2.662 -2.1184,1.086 -2.0171,1.351 0.6812,1.791 4.8686,0.793 8.2695,4.656 10.3145,11.708 0.6866,2.368 0.7959,3.561 0.7906,8.571 0,5.192 -0.093,6.031 -0.7946,7.783 -0.8705,2.167 -1.9304,3.504 -2.7783,3.504 -0.4426,0 -0.5119,-0.266 -0.3412,-1.323 0.1199,-0.727 0.3106,-3.941 0.4332,-7.142 0.1773,-4.693 0.1067,-6.434 -0.3772,-8.987 -1.3359,-7.08 -3.9088,-11.295 -8.1056,-13.281 l -2.109,-0.998 -0.8425,0.787 c -3.0916,2.886 -4.3194,9.085 -3.0423,15.351 1.6825,8.249 6.6338,15.403 12.6636,18.294 2.7649,1.326 3.5235,1.415 5.3992,0.632 z m 309.0038,-0.509 c 4.0701,-1.925 7.2936,-5.307 9.7533,-10.231 2.5303,-5.067 3.5115,-9.336 3.2955,-14.353 -0.1706,-4.005 -1.2638,-6.967 -3.3009,-8.942 l -1.1878,-1.152 -1.5931,0.61 c -3.6808,1.405 -6.4724,5.131 -7.9855,10.657 -1.2625,4.612 -1.3118,14.823 -0.093,19.793 0.1333,0.545 0.04,0.794 -0.312,0.794 -1.2145,0 -3.1009,-3.17 -3.7728,-6.341 -0.5079,-2.397 -0.5292,-9.048 -0.04,-11.648 1.5918,-8.401 5.1126,-12.637 11.6464,-14.015 l 1.5864,-0.335 -2.085,-0.989 c -5.6552,-2.685 -11.4997,-0.07 -14.7899,6.619 -5.4206,11.018 -3.7875,26.796 3.0982,29.924 1.9997,0.908 3.2062,0.826 5.7778,-0.391 z m -229.3672,-7.778 c 7.8962,-6.283 11.5917,-16.918 8.7854,-25.28 -1.9984,-5.951 -5.6618,-9.383 -11.9943,-11.234 -2.7329,-0.8 -7.4682,-0.822 -10.0745,-0.04 -3.7542,1.116 -6.975,4.236 -8.7175,8.445 -0.7825,1.891 -0.9092,2.708 -0.8878,5.733 0.04,6 2.2703,11.31 6.7697,16.113 4.0901,4.366 10.7944,8.668 12.8648,8.254 0.5586,-0.107 2.0224,-1.004 3.2542,-1.985 z m -6.747,-5.011 c -7.7563,-5.126 -12.4556,-16.52 -9.2041,-22.317 1.5092,-2.691 4.3621,-3.871 8.7495,-3.619 9.4186,0.54 13.3047,9.581 8.4987,19.77 -1.2971,2.751 -4.8446,7.313 -5.6845,7.313 -0.3439,0 -1.4064,-0.516 -2.3596,-1.147 z m 178.0118,-6.507 c 0.4453,-0.445 -1.8477,-2.927 -2.7049,-2.927 -0.4253,0 -1.9157,2.66 -1.9157,3.422 0,0.344 4.2354,-0.107 4.6206,-0.495 z" id="path55" /></g></svg>