<?xml version='1.0' encoding='utf-8'?>
<svg xmlns="http://www.w3.org/2000/svg" width="325.0405mm" height="330.53342mm" viewBox="0 0 325.0405 330.53342" version="1.1" id="svg5" xml:space="preserve"><defs id="defs2" /><g id="layer1"><path style="fill:#000000;stroke-width:1" d="m 156.5109999999986 328.21252000000004 c -0.116,-1.4328 -0.201,-5.3628 -0.198,-8.7335 0.01,-19.5438 3.858,-41.0266 11.471,-64.1286 l 1.945,-5.8992 -1.403,-1.6089 c -5.856,-6.7146 -15.827,-15.80484 -25.659,-23.39744 -11.102,-8.5713 -19.039,-13.7037 -50.056,-32.3707 -32.96,-19.8369 -44.705,-27.675 -55.981,-37.3595 -19.416,-16.6782 -30.893,-35.9706 -35.369,-59.4607 -1.975,-10.3609 -1.602,-24.3461 0.916,-34.422 3.521,-14.086 9.888,-25.4245 19.64,-34.9781 3.026,-2.9652 7.218,-6.35781 10.217,-8.26899 l 0.918,-0.58609 -0.575,0.89304 c -0.318,0.49112 -0.867,1.38763 -1.22,1.99226 -0.353,0.60463 -1.602,2.54708 -2.774,4.31698 -1.171,1.7698 -3.052,5.1486 -4.179,7.508 -2.504,5.2424 -5.027,12.4296 -4.751,13.5323 0.135,0.5374 0.09,0.7042 -0.158,0.5525 -0.247,-0.1518 -0.286,0 -0.133,0.4726 0.149,0.4691 0.116,0.622 -0.121,0.4795 -0.186,-0.1158 -0.339,-0.081 -0.339,0.093 0,0.1644 -0.08,0.5513 -0.182,0.8606 -0.152,0.4668 -0.126,0.4841 0.148,0.1042 0.438,-0.6092 0.424,-0.4019 -0.128,1.9807 -3.452,14.8828 -1.253,33.4525 6.204,52.416 1.728,4.3957 6.402,14.1648 7.365,15.3983 0.537,0.6869 0.538,0.6857 0.57,-0.6127 0.06,-2.5946 0.498,-4.8637 0.901,-4.7084 0.79,0.3023 0.662,-0.2502 -0.831,-3.5896 -6.862,-15.3415 -10.118,-29.9163 -9.663,-43.2574 0.305,-8.9571 1.745,-16.0157 4.874,-23.9094 7.184,-18.1145 22.181,-32.39623 40.236,-38.31277 5.818,-1.90654 13.622,-3.21773 19.093,-3.20846 20.004,0.0348 39.588,10.34121 54.034,28.43253 5.363,6.7158 9.453,13.3412 13.911,22.538 3.816,7.8706 6.716,15.1689 10.124,25.4789 l 2.834,8.5725 0.449,-1.0645 c 0.248,-0.5849 0.827,-1.961 1.288,-3.0556 1.518,-3.615 7.42,-15.4075 9.663,-19.3075 3.404,-5.9235 9.974,-15.579 14.284,-20.9928 4.677,-5.8772 14.378,-15.6948 19.277,-19.5114 8.083,-6.2953 17.05,-11.27131 24.978,-13.86009 21.691,-7.08641 43.88,-3.45286 60.679,9.9358 2.184,1.74091 5.377,4.75479 3.551,3.35325 -0.55,-0.42277 -0.564,-0.40888 -0.23,0.21894 0.197,0.3683 0.356,0.7471 0.356,0.8421 0,0.3915 -1.255,0.1262 -2.949,-0.622 -0.99,-0.43788 -1.833,-0.78768 -1.873,-0.7761 -0.03,0.0116 -0.721,-0.25714 -1.515,-0.59652 -1.692,-0.72625 -7.125,-2.49264 -9.751,-3.17255 -6.329,-1.63551 -13.977,-1.95635 -21.913,-0.91737 -1.939,0.25367 -4.627,0.59768 -5.975,0.76331 -2.692,0.33127 -3.999,0.69266 -4.731,1.30887 -0.264,0.22239 -1.789,0.78764 -3.391,1.25559 -5.049,1.47681 -10.34,3.74007 -15.783,6.75167 -3.398,1.8799 -11.652,7.3667 -15.17,10.0829 -4.068,3.1413 -9.748,8.7648 -12.27,12.1458 -1.069,1.4328 -3.457,4.3285 -5.307,6.4355 -1.851,2.1069 -3.649,4.1756 -3.995,4.5972 l -0.629,0.7656 0.782,-0.7656 c 0.431,-0.4216 2.655,-2.8355 4.943,-5.364 17.12,-18.9137 35.164,-30.8742 51.582,-34.18923 4.207,-0.85019 12.299,-1.14208 16.626,-0.6 11.837,1.48145 23.063,6.98453 32.2,15.78173 11.012,10.6041 18.514,25.5286 21.103,41.9798 0.83,5.2795 0.737,16.2253 -0.181,21.4075 -2.422,13.6551 -8.468,25.7534 -18.486,36.9865 -2.39,2.6791 -6.994,7.0436 -6.994,6.6289 0,-0.093 0.883,-1.2695 1.96,-2.605 5.701,-7.0609 11.013,-19.7882 12.871,-30.8394 3.92,-23.3187 -2.444,-45.8868 -17.275,-61.2515 -13.079,-13.552 -29.748,-19.2102 -47.552,-16.1454 -14.133,2.4347 -29.636,10.6574 -41.636,22.0862 -2.595,2.4707 -2.591,2.4684 0.842,-0.4922 1.896,-1.6344 4.033,-3.3764 4.75,-3.8699 l 1.303,-0.8976 -1.216,1.0181 c -0.669,0.5594 -1.841,1.6216 -2.605,2.3583 l -1.389,1.3413 1.532,-1.0993 c 0.844,-0.6046 3.069,-2.21 4.946,-3.5675 20.519,-14.84 39.841,-19.3944 57.78,-13.618 16.834,5.4197 30.905,19.8774 36.814,37.8263 6.344,19.2681 4.092,38.3521 -6.555,55.5411 -6.935,11.1983 -17.534,21.938 -36.596,37.0814 -40.063,31.8298 -60.437,52.0535 -78.265,77.68534 -13.712,19.7141 -23.545,41.6648 -28.385,63.3665 -1.8,8.0664 -2.533,12.9439 -2.925,19.4605 -0.177,2.9501 -0.361,5.5007 -0.409,5.6686 -0.05,0.168 -0.178,-0.8664 -0.289,-2.298 z m 15.258,-84.1242 c 8.69,-21.42374 18.066,-37.33514 31.598,-53.63114 4.623,-5.5655 16.517,-17.3303 24.329,-24.0623 14.549,-12.5384 16.652,-14.438 22.706,-20.5028 8.697,-8.7162 14.314,-15.9844 18.489,-23.9291 4.508,-8.5772 6.792,-16.6632 7.143,-25.2832 0.834,-20.4565 -8.987,-33.7907 -26.87,-36.4861 -9.574,-1.4444 -18.741,0.3139 -29.574,5.6722 -8.43,4.1687 -16.111,9.7979 -23.618,17.3083 -8.047,8.0513 -14.432,16.3261 -20.351,26.3765 -3.728,6.3324 -9.539,18.235 -8.902,18.235 0.844,0 9.083,-1.7977 14.869,-3.2444 13.808,-3.4517 26.583,-7.7397 38.92,-13.0643 7.054,-3.044 17.996,-8.3965 21.991,-10.7594 1.305,-0.7714 2.374,-1.3401 2.374,-1.2625 0,0.4459 -11.079,7.0088 -17.469,10.347 -17.215,8.9941 -36.942,16.4871 -56.96,21.6357 -3.264,0.8386 -5.996,1.5868 -6.071,1.661 -0.289,0.2895 -2.351,6.7227 -3.651,11.3894 -4.217,15.1458 -6.432,33.829 -5.658,47.7354 0.181,3.2432 0.39,6.5849 0.467,7.4281 0.307,3.3892 -0.775,-2.847 -1.515,-8.7346 -1.365,-10.8486 -1.543,-14.0026 -1.533,-27.1225 0,-12.5628 0.334,-18.2523 1.496,-26.2793 0.213,-1.4745 0.337,-2.6814 0.274,-2.6814 -0.06,0 -1.945,0.3382 -4.184,0.7517 -10.652,1.9679 -19.905,2.7521 -29.845,2.5297 -12.297,-0.2745 -20.306,-2.0073 -29.917,-6.4714 -14.676,-6.8165 -26.638,-20.1171 -31.434,-34.9513 -3.175,-9.8212 -3.073,-18.6658 0.316,-27.3356 4.115,-10.5289 12.443,-18.5037 23.564,-22.5635 4.268,-1.5591 5.132,-1.6842 2.912,-0.4228 -1.012,0.5734 -2.874,1.9842 -4.137,3.1332 -7.021,6.3833 -10.138,10.6991 -11.638,16.1129 -0.341,1.2336 -0.617,2.3143 -0.612,2.4023 0,0.093 0.562,-1.0123 1.241,-2.444 2.905,-6.1273 8.812,-13.1546 14.073,-16.7384 2.207,-1.5034 8,-4.7247 6.446,-3.5849 -3.282,2.4092 -4.489,3.4459 -6.77,5.8158 -4.377,4.5486 -7.697,10.0041 -9.633,15.8361 -1.496,4.5046 -2.038,7.4768 -2.216,12.1539 -0.238,6.1992 0.948,11.5748 3.819,17.3153 5.536,11.0744 15.319,20.5121 27.201,26.2433 6.49,3.1297 12.192,4.734 22.372,6.293 5.268,0.8062 6.021,0.8433 16.703,0.8398 7.647,0 11.443,-0.1158 11.999,-0.3521 0.637,-0.2722 0.857,-0.6325 1.021,-1.6691 1.374,-8.686 6.915,-28.026 10.848,-37.8633 l 1.254,-3.1367 -1.395,-3.264 c -9.284,-21.7388 -22.517,-37.3595 -40.277,-47.5466 -9.671,-5.5494 -20.306,-8.7729 -31.77,-9.6335 -9.735,-0.7298 -18.784,0.8779 -26.954,4.7906 -4.807,2.3027 -8.33,4.7409 -12.097,8.3722 -13.273,12.7944 -18.204,32.8664 -13.72,55.8538 2.231,11.4393 7,23.6198 13.419,34.2784 11.921,19.7952 28.396,36.7247 67.752,69.6178 6.32,5.2818 13.699,11.5447 16.395,13.9145 11.238,9.8791 24.058,23.38244 24.058,25.34234 0,0.5258 -0.08,0.5548 -0.689,0.2386 -0.655,-0.3429 -0.665,-0.3325 -0.208,0.2189 0.608,0.7309 2.266,2.8077 5.312,6.6567 1.31,1.6552 2.425,2.9663 2.474,2.9107 0.05,-0.058 0.875,-2.0293 1.833,-4.3899 z m -50.608,-118.70844 c -12.002,-5.1903 -20.219,-13.5948 -23.269,-23.797 -0.718,-2.4058 -0.824,-3.2872 -0.821,-6.8953 0,-4.8984 0.605,-7.5914 2.524,-11.2736 2.99,-5.7463 7.706,-9.6393 13.651,-11.2737 2.492,-0.6845 8.487,-0.9173 11.426,-0.4436 2.636,0.4251 7.585,2.0675 10.181,3.3776 3.775,1.9054 7.518,4.7165 11.195,8.4045 2.028,2.0351 4.023,4.1826 4.434,4.7733 0.696,0.9996 0.623,0.9672 -1.083,-0.4853 -5.15,-4.3876 -11.887,-7.7837 -18.199,-9.1736 -4.455,-0.9811 -6.484,-1.1514 -9.526,-0.7993 -5.589,0.6487 -10.151,2.8529 -13.791,6.6637 l -1.685,1.764 1.791,-1.5938 c 0.985,-0.8768 2.368,-1.9331 3.074,-2.3455 1.365,-0.8015 5.744,-2.678 5.894,-2.5274 0.05,0.046 -0.955,0.7066 -2.233,1.4583 -2.953,1.7409 -6.485,5.4266 -7.911,8.2598 -2.615,5.1926 -2.849,10.6319 -0.733,17.0129 2.418,7.2926 8.908,14.6396 16.897,19.128 0.968,0.5456 1.762,1.0494 1.762,1.1212 0,0.1969 0.09,0.2294 -3.578,-1.3552 z m -73.038,-100.4989 c 0.252,-0.093 1.004,-0.5155 1.669,-0.929 4.205,-2.6223 11.523,-5.5169 16.871,-6.67403 1.181,-0.25598 2.422,-0.5305 2.759,-0.61158 1.581,-0.38223 5.716,-0.77837 11.033,-1.05867 9.551,-0.50502 17.067,0.33242 27.888,3.10537 6.561,1.68183 11.874,4.01461 16.549,7.26481 1.348,0.9382 2.268,1.4791 2.042,1.2023 -0.83,-1.017 -7.36,-5.1486 -10.93,-6.91616 -8.228,-4.07371 -15.754,-6.05901 -25.896,-6.82927 -14.065,-1.06911 -27.89,2.05133 -38.601,8.71263 -2.545,1.5822 -6.632,4.7478 -7.828,6.0613 -0.506,0.556 0.183,0.07 1.533,-1.0702 1.348,-1.1444 2.658,-2.1602 2.911,-2.2575 z" id="path89" /></g></svg>